# Blender 4.3.2
# www.blender.org
mtllib key.mtl
o Cube
v 0.500000 2.000000 -1.000000
v 0.500000 1.000000 -1.000000
v 0.500000 2.000000 1.000000
v 0.500000 1.000000 1.000000
v -0.500000 2.000000 -1.000000
v -0.500000 1.000000 -1.000000
v -0.500000 2.000000 1.000000
v -0.500000 1.000000 1.000000
v -0.400000 0.500000 0.400000
v -1.000000 2.500000 1.000000
v 1.000000 2.500000 1.000000
v 0.400000 0.500000 0.400000
v 0.400000 0.500000 -0.400000
v -0.400000 0.500000 -0.400000
v 1.000000 2.500000 -1.000000
v -1.000000 2.500000 -1.000000
v -1.000000 0.500000 -1.000000
v -1.000000 0.500000 1.000000
v 1.000000 0.500000 -1.000000
v 1.000000 0.500000 1.000000
v -0.400000 -1.500000 -0.400000
v -0.400000 -1.500000 0.400000
v 0.400000 -1.500000 -0.400000
v 0.400000 -1.500000 0.400000
v 0.375097 -1.273169 0.250000
v 0.375097 -0.773169 0.250000
v 0.375097 -1.273169 -0.250000
v 0.375097 -0.773169 -0.250000
v 0.875097 -1.273169 0.250000
v 0.875097 -0.773169 0.250000
v 0.875097 -1.273169 -0.250000
v 0.875097 -0.773169 -0.250000
v 0.375097 -0.586342 0.250000
v 0.375097 -0.086342 0.250000
v 0.375097 -0.586342 -0.250000
v 0.375097 -0.086342 -0.250000
v 0.875097 -0.586342 0.250000
v 0.875097 -0.086342 0.250000
v 0.875097 -0.586342 -0.250000
v 0.875097 -0.086342 -0.250000
vn -0.0000 1.0000 -0.0000
vn -0.0000 -1.0000 -0.0000
vn -1.0000 -0.0000 -0.0000
vn 1.0000 -0.0000 -0.0000
vn -0.0000 -0.0000 1.0000
vn -0.0000 -0.0000 -1.0000
vt 0.625000 0.500000
vt 0.875000 0.500000
vt 0.875000 0.750000
vt 0.625000 0.750000
vt 0.562500 0.312500
vt 0.562500 0.437500
vt 0.562500 0.812500
vt 0.562500 0.937500
vt 0.375000 0.000000
vt 0.625000 0.000000
vt 0.625000 0.250000
vt 0.375000 0.250000
vt 0.300000 0.575000
vt 0.300000 0.675000
vt 0.375000 0.500000
vt 0.375000 0.750000
vt 0.437500 0.437500
vt 0.437500 0.812500
vt 0.437500 0.937500
vt 0.625000 1.000000
vt 0.375000 1.000000
vt 0.437500 0.312500
vt 0.200000 0.575000
vt 0.200000 0.675000
vt 0.125000 0.750000
vt 0.125000 0.500000
s 0
usemtl Material
f 15/1/1 16/2/1 10/3/1 11/4/1
f 5/5/2 1/6/2 3/7/2 7/8/2
f 18/9/3 10/10/3 16/11/3 17/12/3
f 13/13/4 12/14/4 24/14/4 23/13/4
f 19/15/4 15/1/4 11/4/4 20/16/4
f 1/6/3 2/17/3 4/18/3 3/7/3
f 8/19/5 7/8/5 10/20/5 18/21/5
f 3/7/5 4/18/5 20/16/5 11/4/5
f 7/8/5 3/7/5 11/4/5 10/20/5
f 4/18/5 8/19/5 18/21/5 20/16/5
f 6/22/6 2/17/6 19/15/6 17/12/6
f 2/17/6 1/6/6 15/1/6 19/15/6
f 5/5/6 6/22/6 17/12/6 16/11/6
f 1/6/6 5/5/6 16/11/6 15/1/6
f 2/17/1 6/22/1 8/19/1 4/18/1
f 6/22/4 5/5/4 7/8/4 8/19/4
f 14/23/2 9/24/2 18/25/2 17/26/2
f 13/13/2 14/23/2 17/26/2 19/15/2
f 9/24/2 12/14/2 20/16/2 18/25/2
f 12/14/2 13/13/2 19/15/2 20/16/2
f 21/23/2 23/13/2 24/14/2 22/24/2
f 14/23/6 13/13/6 23/13/6 21/23/6
f 12/14/5 9/24/5 22/24/5 24/14/5
f 9/24/3 14/23/3 21/23/3 22/24/3
f 25/9/3 26/10/3 28/11/3 27/12/3
f 27/12/6 28/11/6 32/1/6 31/15/6
f 31/15/4 32/1/4 30/4/4 29/16/4
f 29/16/5 30/4/5 26/20/5 25/21/5
f 27/26/2 31/15/2 29/16/2 25/25/2
f 32/1/1 28/2/1 26/3/1 30/4/1
f 33/9/3 34/10/3 36/11/3 35/12/3
f 35/12/6 36/11/6 40/1/6 39/15/6
f 39/15/4 40/1/4 38/4/4 37/16/4
f 37/16/5 38/4/5 34/20/5 33/21/5
f 35/26/2 39/15/2 37/16/2 33/25/2
f 40/1/1 36/2/1 34/3/1 38/4/1
