# Blender 4.3.2
# www.blender.org
mtllib lock.mtl
o Cube
v 0.400000 1.141397 -1.000000
v 1.000000 -1.000000 -1.000000
v 1.000000 1.000000 1.000000
v 1.000000 -1.000000 1.000000
v -0.400000 1.141397 -1.000000
v -1.000000 -1.000000 -1.000000
v -1.000000 1.000000 1.000000
v -1.000000 -1.000000 1.000000
v 0.800000 3.000000 0.800000
v -0.800000 3.000000 0.800000
v 0.400000 2.400000 -1.000000
v -0.400000 2.400000 -1.000000
v -1.000000 1.000000 -1.000000
v 1.000000 1.000000 -1.000000
v -0.800000 3.000000 -0.800000
v 0.800000 3.000000 -0.800000
v -0.400000 1.141397 0.596390
v 0.400000 1.141397 0.596390
v -0.400000 2.400000 0.596390
v 0.400000 2.400000 0.596390
v 1.000000 3.000000 1.000000
v -1.000000 3.000000 1.000000
v 1.000000 3.000000 -1.000000
v -1.000000 3.000000 -1.000000
v 0.800000 3.147447 0.800000
v -0.800000 3.147447 0.800000
v 0.800000 3.147447 -0.800000
v -0.800000 3.147447 -0.800000
vn -1.0000 -0.0000 -0.0000
vn -0.0000 -0.0000 1.0000
vn -0.0000 -1.0000 -0.0000
vn 1.0000 -0.0000 -0.0000
vn -0.0000 -0.0000 -1.0000
vn -0.0000 1.0000 -0.0000
vt 0.625000 0.250000
vt 0.625000 0.000000
vt 0.375000 0.750000
vt 0.625000 0.750000
vt 0.625000 1.000000
vt 0.375000 1.000000
vt 0.375000 0.000000
vt 0.375000 0.250000
vt 0.125000 0.500000
vt 0.375000 0.500000
vt 0.125000 0.750000
vt 0.625000 0.500000
vt 0.650000 0.525000
vt 0.850000 0.525000
vt 0.625000 0.425000
vt 0.625000 0.325000
vt 0.650000 0.725000
vt 0.850000 0.725000
vt 0.875000 0.750000
vt 0.875000 0.500000
s 0
usemtl Material
f 13/1/1 7/2/1 22/2/1 24/1/1
f 4/3/2 3/4/2 7/5/2 8/6/2
f 8/7/1 7/2/1 13/1/1 6/8/1
f 6/9/3 2/10/3 4/3/3 8/11/3
f 2/10/4 14/12/4 3/4/4 4/3/4
f 6/8/5 13/1/5 14/12/5 2/10/5
f 16/13/5 15/14/5 28/14/5 27/13/5
f 3/4/4 14/12/4 23/12/4 21/4/4
f 11/15/1 1/15/1 18/15/1 20/15/1
f 7/5/2 3/4/2 21/4/2 22/5/2
f 5/16/5 1/15/5 14/12/5 13/1/5
f 11/15/5 12/16/5 24/1/5 23/12/5
f 12/16/5 5/16/5 13/1/5 24/1/5
f 1/15/5 11/15/5 23/12/5 14/12/5
f 18/15/5 17/16/5 19/16/5 20/15/5
f 12/16/3 11/15/3 20/15/3 19/16/3
f 5/16/4 12/16/4 19/16/4 17/16/4
f 1/15/6 5/16/6 17/16/6 18/15/6
f 9/17/6 10/18/6 22/19/6 21/4/6
f 16/13/6 9/17/6 21/4/6 23/12/6
f 10/18/6 15/14/6 24/20/6 22/19/6
f 15/14/6 16/13/6 23/12/6 24/20/6
f 27/13/6 28/14/6 26/18/6 25/17/6
f 9/17/4 16/13/4 27/13/4 25/17/4
f 15/14/1 10/18/1 26/18/1 28/14/1
f 10/18/2 9/17/2 25/17/2 26/18/2
